<?xml version="1.0" encoding="utf-8"?>
<!-- Generator: Adobe Illustrator 27.2.0, SVG Export Plug-In . SVG Version: 6.00 Build 0)  -->
<svg version="1.1" id="Layer_1" xmlns="http://www.w3.org/2000/svg" xmlns:xlink="http://www.w3.org/1999/xlink" x="0px" y="0px"
	 viewBox="0 0 600 600" style="enable-background:new 0 0 600 600;" xml:space="preserve">
<style type="text/css">
	.st0{fill:#FFFFFF;}
</style>
<path class="st0" d="M300,0C134.3,0,0,134.3,0,300c0,116.9,66.8,218.1,164.3,267.6L98.4,114.5h15.5l67.1,460.9
	C217.4,591.2,257.7,600,300,600c165.7,0,300-134.3,300-300C600,134.3,465.7,0,300,0z M525,426.2c0.3,0.7,1.4,1.2,2,1.8
	c2.4,2.6,1.7,6.3-1.2,7.6c-2.5,1.1-6.5,0.2-8.6,2c2,0.8,8.3-0.1,9.7,1.3c1.4,1.6-2,1.6-2.3,2.8c0.4,0,1,0.4,1.3,0.5
	c0.9,0.2-0.7,8.6-3.3,11.2c-2.2,2.2-6.1,2.8-9.3,3.3c-1.5,0.2-5,0.8-5.8,2.1c2.1,0.1,8.8-0.2,8.7,2.4c-0.2,3.6-10.5,3.3-13.6,3.9
	c-7.4,1.3-15.6-0.2-22.9,1.2c-1.8,0.6-2.7,1.3-2.5,3.1c5.6-0.4,8.5-0.3,12.2-0.5c-2.5,2.3-6.1,1.7-8.9,3c4,1,8.7,1.2,12.7,0.9
	c2.3-0.2,1.9-0.3,3.8,0.4c2.2,0.9,4.2,0.9,2.9,2.6c-1.4,1.7-4.7,2.4-6.7,3.6c-2.3,1.3-6.6,7.3-9.6,6.7c1.4,2.2,4.3,1.9,5.8,2.5
	c-3.1,2.7-8.9,2.8-13.6,3.4c3.7,0.8,15-0.1,17,3c-3.8-0.1-5.6,3.2-9.4,4c-3.3,0.7-7.8,0-11.2,0.1c-18.7,0.8-40.6,3.4-59.7-1.4
	c-2.3-0.6-9.7-2.1-9.2,1.3c0.6,3-15.2,0.4-22.5,2c-6.8,1.5-11.5,3.9-19.1,3.3c-5.1-0.4-23.9-3.9-47.8-3.3
	c-18.1,0.4-28.3-2.8-43.9-2.1c-13.8,0.6-22.4,3.6-35.2,3.9c-5.8,0.1-45.2-1.8-55.7-1.8c-0.5-3.6-1-7.1-1.5-10.6
	c-1.4-9.6-2.7-19.2-4.1-28.8c-2-14.2-4.1-28.3-6.1-42.5c-2.5-17.2-4.9-34.5-7.4-51.7c-2.7-18.8-5.4-37.6-8.1-56.4
	c-2.7-18.9-5.4-37.7-8.1-56.6c-2.5-17.4-5-34.9-7.5-52.3c-2.1-14.5-4.2-29.1-6.2-43.6c-1.4-10.1-2.9-20.2-4.4-30.4
	c-0.4-2.6-0.8-5.3-1.1-7.9c-0.1-0.7-0.3-2.1-0.1-2.8c1-3.9,14-1.8,18.1-1.7c18.7,0.8,28.5,7,43.7,4.7c9.8-1.5,19.1-6.2,28.9-7.3
	c19.4-2.1,40.4,5.1,60.3,4.7c18.3-0.4,33.4-4.4,51.9-1.3c3.7,0.6,8.4,0.1,11.7-0.5c4.1-0.8,6.7-1,11-0.2c1.7,0.4,3.1,0.2,4.7,0.6
	c2.2,0.5,3.9,2.2,6.8,1.9c10.2-0.9,13.9-4.6,25.1-2.1c13.9,3.1,27.9,3.9,41.9,6.1c5.1,0.8,9.8,1.6,15,2.1c7.7,0.9,15.7,4.6,14.8,4.9
	c-2.7,0.8-4.7,2.2-8.2,1.8c1.7,7.9,9.4,7.1,14.5,8.6c-4.1,3-7.9,1.2-11,2.5c-0.2,10.8,36.7,3.1,22,21.6c3.5,1.5,16.1,3.9,20,1.5
	c-2.7,2.9-6,2.8-9.4,3.2c-0.5,0.1-2.1,0.2-2.5,0.5c-1,0.8,3.2,0.5,3.9,1.2c1.8,1.9-6.2,2.9-8.3,3.4c0.1,2.2,4,1.4,5.3,2.4
	c1.4,1.1-0.4,1.7-0.4,2.7c0.1,1.8,1,1.2,2.1,2.4c2.7,2.7-1.8,1.5-3.3,2.9c-1.7,1.5,2,2.5,3.6,3.1c8.1,2.8-0.8,9.9-4.7,11.5
	c-5.5,2.2-14.3-0.4-18.9,4c6.5,3,18.1-0.2,24.7-0.4c-0.9,2.7-3.7,2.9-4.8,4.1c4,3.8,8.7-1.8,13.2-0.4c4.4,1.4,0.3,2.1,0.2,4
	c0,0.8-2,1.4-1.9,2.4c0.1,0.8,1.4,1,1.6,1.1c1.2,0.4,3,0.6,3.1,1.1c0.2,0.9-0.8,1.7-1.4,2c-0.1,0.1-2.5,1-2.3,2.3
	c0.1,1.1,2.5,2,2.7,3c0,0.1-1.3,3.8-1.8,5.7c-0.6,2.3-1.6,6.5-3.3,7.2c0.1,0,2,0.4,3,0.2c0.2,2.7-6.7,2-8.4,3.3c2,1.5,5.6,1.9,8,2.9
	c-0.2,1.3-3.3,1.5-3.6,2.6c-3.6,0.2-7.4,0.5-10.5,1.9c2.7,1.7,7.8,1.7,10.8,1.7c1,4.4-9.4,4.8-8.4,8.8c2.7,1,10.8,1,16.7,3.9
	c-5.8,1.6-9.5,4.3-13.7,7.9c-7.5,6.5-18.6,9.6-29.6,9.9c-5.2,0.2-17.1-1.6-20.7,1.8c1.9,1,5.6,0.6,7.6,0.7c-1,1.9-6.5,1.6-8.6,2
	c-2.9,0.4-6.1,1.5-9,1.6c7-0.2,14.9,2.9,21.9,5.3c3,1,7.7,0.9,7.7,0.9c-2.3,4.4-5.3,5.5-9.3,7.1c2.9,0.9,8.4,0.2,10.5,1.7
	c-1,0.5-2,1.1-3.2,1.4c7.9-0.1,6.8-0.3,14.8,0.7c3.3,0.4,10.8,1.5,14.2,4.7c3,2.9,10.6,3.6,9.6,4.2c-0.1,0-0.1,0.1-0.1,0.1
	c-2.2,1.4-2.3,4-4,5.5c-1.5,1.3-4.5,0.7-6.3,1.8c3,2.2,8.1,0.7,11.2,2.8c-1.3,1-3,1.3-4.5,2.1c2.2,0.8,4.8,0,6.7,1.5
	c2,10.8,10.1,8.1,19.1,13.6c-1.4,2.6-3.2,3.9-6.2,4.3c-1.6,0.2-3.3-0.2-4.9-0.1c3.1,3.6,7.4,2.8,11.4,4.1c-0.7,0.5-1.5,0.4-2.1,1.1
	c-0.3,1.1,2.5,0.4,4.4,2c-4.5,1.3,1.2,2.4,1.4,3.3c0.5,2-20.6,3.8-23,4.1c-4.6,0.5-11.8-0.6-15.4,2.3c11.3,1,21.7,1.7,33.1,3.4
	c-1,3.9-6.5,0.9-6.9,4.1c3.5,1.2,6.3,1.3,9.3,2.9c3.8,2,13.6,6.5,5.1,9.9c0.8,0.8,1.8,1.1,2.8,1.6c0.9,1.8-1.5,4.1-0.5,6.5
	c0.4,0.9,1.7,0.4,1.9,1.4c-2.7,1-7,1.1-9.2,2.6c1.8,2,5.4,2.3,7.8,3c1.5,0.4,5.2,1.2,5.5,2.9c0.4,2.7-4.8,3.6-7,3.6
	c1.9,0.1,3.9,0.7,5.8,1.2c0.1,0.5,0.1,1.3,0.4,1.8c0.3,0.6,0.3,1.3,0.7,1.9c0.7,0.9,2.3,0.9,2.9,1.5c2.7,2.9-7.5,4.2-8.9,6
	c2.4,1.1,5.4,0.6,8,0.7c0.2,1.4,1.8,2.8,3.1,3.7C532.7,419.6,523.5,421.9,525,426.2z"/>
</svg>
