<svg width="50" height="50" viewBox="0 0 50 50" fill="none" xmlns="http://www.w3.org/2000/svg">
<mask id="mask0_293_1201" style="mask-type:alpha" maskUnits="userSpaceOnUse" x="0" y="0" width="50" height="50">
<rect width="50" height="50" fill="#C4C4C4"/>
</mask>
<g mask="url(#mask0_293_1201)">
<rect x="3" y="10" width="44" height="30" rx="2" fill="black"/>
<path fill-rule="evenodd" clip-rule="evenodd" d="M12.0907 21.0002H9.43921C9.25777 21.0002 9.10345 21.1309 9.07516 21.3083L8.00278 28.045C7.98147 28.178 8.08537 28.2978 8.22145 28.2978H9.48728C9.66872 28.2978 9.82303 28.1671 9.85133 27.9893L10.1406 26.1724C10.1685 25.9944 10.3231 25.864 10.5042 25.864H11.3436C13.0902 25.864 14.0981 25.0265 14.3615 23.367C14.4801 22.641 14.3665 22.0706 14.0233 21.671C13.6465 21.2324 12.978 21.0002 12.0907 21.0002ZM12.3966 23.4607C12.2516 24.4034 11.5246 24.4034 10.8217 24.4034H10.4216L10.7023 22.6428C10.719 22.5365 10.812 22.4581 10.9206 22.4581H11.104C11.5828 22.4581 12.0345 22.4581 12.2679 22.7285C12.407 22.8899 12.4497 23.1295 12.3966 23.4607ZM20.0165 23.4305H18.7467C18.6386 23.4305 18.5451 23.5089 18.5284 23.6154L18.4722 23.9672L18.3834 23.8397C18.1086 23.4444 17.4957 23.3123 16.8839 23.3123C15.4807 23.3123 14.2824 24.3652 14.049 25.8423C13.9277 26.5789 14.1001 27.2834 14.5219 27.7748C14.9089 28.2265 15.4626 28.4147 16.1212 28.4147C17.2517 28.4147 17.8787 27.6944 17.8787 27.6944L17.822 28.0441C17.8007 28.1778 17.9046 28.2976 18.0399 28.2976H19.1836C19.3656 28.2976 19.5189 28.1669 19.5477 27.9892L20.2339 23.6833C20.2556 23.5508 20.1521 23.4305 20.0165 23.4305ZM18.2465 25.8791C18.124 26.5978 17.5483 27.0802 16.8141 27.0802C16.4454 27.0802 16.1506 26.9631 15.9615 26.7411C15.7739 26.5206 15.7024 26.2067 15.7622 25.8572C15.8767 25.1445 16.4621 24.6464 17.1851 24.6464C17.5456 24.6464 17.8387 24.765 18.0318 24.989C18.2252 25.2153 18.302 25.531 18.2465 25.8791ZM25.5028 23.4303H26.7788C26.9575 23.4303 27.0617 23.6289 26.9602 23.7741L22.7165 29.8435C22.6478 29.9418 22.5346 30.0002 22.4136 30.0002H21.1392C20.9598 30.0002 20.855 29.8001 20.9589 29.6545L22.2803 27.8064L20.875 23.7199C20.8263 23.5779 20.9322 23.4303 21.0847 23.4303H22.3384C22.5014 23.4303 22.6451 23.5363 22.6921 23.6908L23.4379 26.1589L25.1978 23.5905C25.2667 23.4902 25.3811 23.4303 25.5028 23.4303Z" fill="white"/>
<path fill-rule="evenodd" clip-rule="evenodd" d="M39.2802 27.6509L40.3557 21.1749C40.3722 21.0743 40.4642 21.0003 40.5711 21H41.782C41.9157 21 42.0183 21.1134 41.9972 21.239L40.9366 27.5984C40.909 27.7662 40.7564 27.8896 40.5768 27.8896H39.4954C39.3617 27.8896 39.2591 27.7765 39.2802 27.6509ZM31.0433 21.0003H28.4221C28.2432 21.0003 28.0907 21.1237 28.0627 21.2912L27.0028 27.6509C26.9817 27.7765 27.0843 27.8896 27.2182 27.8896H28.5631C28.6881 27.8896 28.7951 27.8033 28.8146 27.6858L29.1153 25.8831C29.143 25.7151 29.2958 25.5919 29.4748 25.5919H30.304C32.0307 25.5919 33.0267 24.8013 33.2872 23.2347C33.4048 22.5493 33.2918 22.0108 32.9528 21.6335C32.5806 21.2195 31.9204 21.0003 31.0433 21.0003ZM31.3456 23.3232C31.2027 24.2131 30.4841 24.2131 29.789 24.2131H29.3939L29.6718 22.551C29.6883 22.4506 29.7794 22.3766 29.8871 22.3766H30.0683C30.5412 22.3766 30.9881 22.3766 31.2186 22.6319C31.3563 22.7843 31.3981 23.0105 31.3456 23.3232ZM38.8764 23.2946H37.6223C37.5145 23.2946 37.423 23.3686 37.4068 23.4692L37.3513 23.8013L37.2632 23.6809C36.9915 23.3077 36.3861 23.183 35.7814 23.183C34.3945 23.183 33.2104 24.177 32.9797 25.5715C32.8602 26.2669 33.0299 26.932 33.4468 27.3958C33.83 27.8223 34.3766 28 35.0276 28C36.1449 28 36.7645 27.32 36.7645 27.32L36.7087 27.6501C36.6876 27.7763 36.7902 27.8894 36.9248 27.8894H38.0548C38.2337 27.8894 38.3862 27.7661 38.4142 27.5982L39.0929 23.5333C39.1136 23.4082 39.011 23.2946 38.8764 23.2946ZM37.1272 25.6062C37.0068 26.2847 36.437 26.7402 35.7112 26.7402C35.3475 26.7402 35.0556 26.6296 34.8685 26.42C34.683 26.2119 34.6133 25.9155 34.6717 25.5856C34.7853 24.9128 35.3633 24.4425 36.0779 24.4425C36.4343 24.4425 36.7239 24.5545 36.9149 24.7659C37.1068 24.9795 37.1827 25.2776 37.1272 25.6062Z" fill="white"/>
</g>
</svg>
