<svg width="50" height="50" viewBox="0 0 50 50" fill="none" xmlns="http://www.w3.org/2000/svg">
<mask id="mask0_292_1335" style="mask-type:alpha" maskUnits="userSpaceOnUse" x="0" y="0" width="50" height="50">
<rect width="50" height="50" fill="#C4C4C4"/>
</mask>
<g mask="url(#mask0_292_1335)">
<rect x="3" y="10" width="44" height="30" rx="2" fill="black"/>
<path d="M20.0333 39L46 31.1964V38C46 38.5523 45.5523 39 45 39H20.0333Z" fill="white"/>
<path fill-rule="evenodd" clip-rule="evenodd" d="M40.2812 21.1388C41.5993 21.1388 42.3242 21.7443 42.3242 22.888C42.3901 23.7626 41.797 24.5026 41.0061 24.6371L42.7855 27.1263H41.4015L39.8858 24.7044H39.754V27.1263H38.6336V21.1388H40.2812ZM39.7542 23.8971H40.0837C40.8087 23.8971 41.1382 23.5607 41.1382 22.9553C41.1382 22.4171 40.8087 22.0807 40.0837 22.0807H39.7542V23.8971ZM34.7453 27.1263H37.9087V26.1172H35.8657V24.5026H37.8428V23.4934H35.8657V22.1479H37.9087V21.1388H34.7453V27.1263ZM31.4501 25.1753L29.9344 21.1388H28.7481L31.1865 27.2609H31.7797L34.2181 21.1388H33.0318L31.4501 25.1753ZM18.0718 24.1662C18.0718 25.8481 19.3899 27.2608 21.0375 27.2608C21.5647 27.2608 22.026 27.1263 22.4874 26.9245V25.579C22.1578 25.9826 21.6965 26.2517 21.1693 26.2517C20.1148 26.2517 19.2581 25.4444 19.2581 24.368V24.2335C19.1922 23.1571 20.0489 22.2152 21.1034 22.1479C21.6306 22.1479 22.1578 22.417 22.4874 22.8207V21.4752C22.0919 21.2061 21.5647 21.1388 21.1034 21.1388C19.3899 21.0042 18.0718 22.417 18.0718 24.1662ZM16.0288 23.4262C15.3698 23.1571 15.1721 23.0225 15.1721 22.6861C15.238 22.2825 15.5675 21.9461 15.9629 22.0134C16.2924 22.0134 16.622 22.2152 16.8856 22.4843L17.4787 21.677C17.0174 21.2734 16.4243 21.0042 15.8311 21.0042C14.9085 20.937 14.1176 21.677 14.0517 22.6189V22.6861C14.0517 23.4934 14.3812 23.9644 15.4357 24.3007C15.6993 24.368 15.9629 24.5026 16.2265 24.6371C16.4243 24.7717 16.5561 24.9735 16.5561 25.2426C16.5561 25.7135 16.1606 26.1172 15.7652 26.1172H15.6993C15.1721 26.1172 14.7108 25.7808 14.5131 25.3099L13.7881 26.0499C14.1835 26.7899 14.9744 27.1936 15.7652 27.1936C16.8197 27.2609 17.6764 26.4535 17.7423 25.3771V25.1753C17.6764 24.368 17.3469 23.9644 16.0288 23.4262ZM12.2064 27.1263H13.3267V21.1388H12.2064V27.1263ZM7 21.1388H8.64759H8.97711C10.5588 21.2061 11.811 22.5516 11.7451 24.1662C11.7451 25.0408 11.3496 25.8481 10.6906 26.4536C10.0975 26.9245 9.37253 27.1936 8.64759 27.1263H7V21.1388ZM8.44983 26.1172C8.97706 26.1844 9.57019 25.9826 9.96562 25.6462C10.361 25.2426 10.5587 24.7044 10.5587 24.0989C10.5587 23.5607 10.361 23.0225 9.96562 22.6189C9.57019 22.2825 8.97706 22.0806 8.44983 22.1479H8.12031V26.1172H8.44983ZM25.8485 21C24.2009 21 22.817 22.3455 22.817 24.0947C22.817 25.7765 24.135 27.1893 25.8485 27.2566C27.562 27.3239 28.8801 25.9111 28.946 24.1619C28.8801 22.4128 27.562 21 25.8485 21Z" fill="white"/>
</g>
</svg>
