<svg width="50" height="50" viewBox="0 0 50 50" fill="none" xmlns="http://www.w3.org/2000/svg">
<mask id="mask0_292_1329" style="mask-type:alpha" maskUnits="userSpaceOnUse" x="0" y="0" width="50" height="50">
<rect width="50" height="50" fill="#C4C4C4"/>
</mask>
<g mask="url(#mask0_292_1329)">
<rect x="4" y="10" width="44" height="30" rx="2" fill="black"/>
<path d="M25.8346 20.1943L23.5631 30.833H20.8156L23.0873 20.1943H25.8346ZM37.3932 27.0638L38.8392 23.0688L39.6713 27.0638H37.3932ZM40.4596 30.833H43L40.7806 20.1943H38.4372C37.9091 20.1943 37.4639 20.5011 37.2668 20.9741L33.1445 30.833H36.0298L36.6026 29.2442H40.1268L40.4596 30.833ZM33.2875 27.3598C33.2995 24.5521 29.4131 24.3966 29.4391 23.142C29.4475 22.7608 29.8105 22.3548 30.604 22.2509C30.9974 22.2002 32.083 22.159 33.3136 22.7271L33.7948 20.4702C33.1339 20.2307 32.2834 20 31.225 20C28.509 20 26.5984 21.4453 26.5832 23.5165C26.5657 25.0481 27.948 25.9021 28.9872 26.4123C30.0587 26.9337 30.4177 27.2679 30.4125 27.7338C30.405 28.4476 29.5581 28.7637 28.7694 28.7756C27.3874 28.7972 26.5863 28.4014 25.9478 28.1033L25.4491 30.4355C26.0921 30.7303 27.2768 30.9868 28.5035 31C31.391 31 33.2789 29.5717 33.2875 27.3598ZM21.9088 20.1943L17.4573 30.833H14.5536L12.3628 22.3426C12.23 21.8205 12.1142 21.6285 11.7103 21.4079C11.0496 21.0485 9.95899 20.7123 9 20.5032L9.06497 20.1943H13.7398C14.3353 20.1943 14.871 20.5913 15.0074 21.2785L16.1646 27.4352L19.0225 20.1943H21.9088Z" fill="white"/>
</g>
</svg>
