<svg width="50" height="50" viewBox="0 0 50 50" fill="none" xmlns="http://www.w3.org/2000/svg">
<mask id="mask0_293_1205" style="mask-type:alpha" maskUnits="userSpaceOnUse" x="0" y="0" width="50" height="50">
<rect width="50" height="50" fill="#C4C4C4"/>
</mask>
<g mask="url(#mask0_293_1205)">
<rect x="3" y="10" width="44" height="30" rx="2" fill="black"/>
<path fill-rule="evenodd" clip-rule="evenodd" d="M15.6131 22.0872C16.1207 22.13 16.6282 21.8303 16.9454 21.4503C17.2574 21.0596 17.4635 20.5352 17.4107 20C16.9613 20.0214 16.4062 20.2997 16.0889 20.6904C15.7982 21.0275 15.5497 21.5734 15.6131 22.0872ZM21.6509 28.9802V20.6368H24.7437C26.3404 20.6368 27.4559 21.75 27.4559 23.3769C27.4559 25.0039 26.3192 26.1277 24.7014 26.1277H22.9303V28.9802H21.6509ZM17.4054 22.1888C16.9583 22.1628 16.5503 22.325 16.2207 22.456C16.0087 22.5402 15.8291 22.6116 15.6925 22.6116C15.5391 22.6116 15.3521 22.5364 15.1422 22.452L15.1422 22.452C14.8671 22.3414 14.5525 22.2149 14.2227 22.221C13.4667 22.2317 12.7635 22.6651 12.3776 23.3555C11.5845 24.7363 12.1714 26.7806 12.938 27.9045C13.3133 28.4611 13.7627 29.0712 14.3549 29.0498C14.6154 29.0398 14.8028 28.9594 14.9967 28.8761C15.22 28.7801 15.4519 28.6805 15.8141 28.6805C16.1637 28.6805 16.3855 28.7776 16.5984 28.8707C16.8008 28.9593 16.9952 29.0443 17.2838 29.0391C17.8971 29.0284 18.2831 28.4825 18.6584 27.9259C19.0635 27.3286 19.2415 26.7456 19.2685 26.6571L19.2717 26.6469C19.2711 26.6462 19.2661 26.6439 19.2572 26.6398C19.1218 26.577 18.0868 26.0974 18.0769 24.8112C18.0669 23.7316 18.8978 23.1847 19.0286 23.0986C19.0366 23.0933 19.0419 23.0898 19.0444 23.0879C18.5157 22.2959 17.6909 22.2102 17.4054 22.1888ZM29.7928 29.0444C30.5964 29.0444 31.3419 28.6324 31.6802 27.9794H31.7067V28.9802H32.8909V24.8273C32.8909 23.6231 31.9393 22.8471 30.4748 22.8471C29.1161 22.8471 28.1115 23.6338 28.0745 24.7149H29.2271C29.3223 24.2011 29.7928 23.8639 30.4378 23.8639C31.2203 23.8639 31.6591 24.2332 31.6591 24.9129V25.3731L30.0624 25.4695C28.5768 25.5605 27.7732 26.1759 27.7732 27.2463C27.7732 28.3273 28.6032 29.0444 29.7928 29.0444ZM30.1364 28.0544C29.4544 28.0544 29.0208 27.7226 29.0208 27.2141C29.0208 26.6897 29.4385 26.3846 30.2368 26.3365L31.659 26.2455V26.7164C31.659 27.4978 31.0034 28.0544 30.1364 28.0544ZM36.8191 29.3067C36.3062 30.7677 35.7194 31.2493 34.4717 31.2493C34.3765 31.2493 34.0593 31.2386 33.9853 31.2172V30.2165C34.0646 30.2272 34.2602 30.2379 34.3606 30.2379C34.9263 30.2379 35.2436 29.997 35.4392 29.3709L35.5555 29.0016L33.3878 22.9274H34.7254L36.2322 27.8563H36.2586L37.7654 22.9274H39.066L36.8191 29.3067ZM22.9301 21.7286H24.4052C25.5154 21.7286 26.1499 22.328 26.1499 23.3823C26.1499 24.4366 25.5154 25.0414 24.3999 25.0414H22.9301V21.7286Z" fill="white"/>
</g>
</svg>
