<svg width="50" height="50" viewBox="0 0 50 50" fill="none" xmlns="http://www.w3.org/2000/svg">
<mask id="mask0_293_1197" style="mask-type:alpha" maskUnits="userSpaceOnUse" x="0" y="0" width="50" height="50">
<rect width="50" height="50" fill="#C4C4C4"/>
</mask>
<g mask="url(#mask0_293_1197)">
<rect x="3" y="10" width="44" height="30" rx="2" fill="black"/>
<path fill-rule="evenodd" clip-rule="evenodd" d="M12.7243 21L9 29.4842H13.4585L14.0113 28.1315H15.2747L15.8274 29.4842H20.735V28.4517L21.1723 29.4842H23.7109L24.1482 28.4299V29.4842H34.3546L35.5957 28.1666L36.7577 29.4842L42 29.4951L38.2639 25.2658L42 21H36.8391L35.631 22.2933L34.5055 21H23.4022L22.4488 23.1898L21.4729 21H17.0237V21.9973L16.5288 21H12.7243ZM27.9656 22.2048H33.8266L35.6192 24.1981L37.4696 22.2048H39.2622L36.5385 25.2646L39.2622 28.2892H37.3883L35.5957 26.2727L33.7358 28.2892H27.9656V22.2048ZM29.4131 24.5766V23.4653V23.4642H33.0702L34.6659 25.2416L32.9995 27.0286H29.4131V25.8153H32.6105V24.5766H29.4131ZM13.587 22.2048H15.7603L18.2306 27.958V22.2048H20.6114L22.5194 26.3298L24.2779 22.2048H26.6468V28.2928H25.2054L25.1936 23.5223L23.0922 28.2928H21.8028L19.6896 23.5223V28.2928H16.7243L16.1621 26.9279H13.125L12.564 28.2916H10.9752L13.587 22.2048ZM13.6436 25.6662L14.6443 23.2348L15.6437 25.6662H13.6436Z" fill="white"/>
</g>
</svg>
