<svg width="50" height="50" viewBox="0 0 50 50" fill="none" xmlns="http://www.w3.org/2000/svg">
<mask id="mask0_292_1331" style="mask-type:alpha" maskUnits="userSpaceOnUse" x="0" y="0" width="50" height="50">
<rect width="50" height="50" fill="#C4C4C4"/>
</mask>
<g mask="url(#mask0_292_1331)">
<rect x="3" y="10" width="44" height="30" rx="2" fill="black"/>
<mask id="mask1_292_1331" style="mask-type:alpha" maskUnits="userSpaceOnUse" x="19" y="16" width="11" height="18">
<path d="M29.6103 16.3511H19.9854V33.6475H29.6103V16.3511Z" fill="#FF5F00"/>
</mask>
<g mask="url(#mask1_292_1331)">
<path d="M29.6103 16.3511H19.9854V33.6475H29.6103V16.3511Z" fill="white"/>
<line x1="19.5063" y1="20.6962" x2="30.0886" y2="20.6962" stroke="black" stroke-width="2"/>
<line x1="19.5063" y1="29.3544" x2="30.0886" y2="29.3544" stroke="black" stroke-width="2"/>
<line x1="19.5063" y1="18.3101" x2="30.0886" y2="18.3101" stroke="black"/>
<line x1="19.5063" y1="31.7784" x2="30.0886" y2="31.7784" stroke="black"/>
</g>
<path d="M20.5963 25C20.5948 23.3342 20.9723 21.69 21.7002 20.1916C22.4281 18.6933 23.4873 17.3802 24.7977 16.3518C23.175 15.0763 21.2261 14.2831 19.1739 14.0628C17.1217 13.8426 15.0489 14.2041 13.1924 15.1062C11.336 16.0083 9.77079 17.4145 8.67575 19.164C7.58071 20.9136 7 22.936 7 25C7 27.064 7.58071 29.0864 8.67575 30.836C9.77079 32.5855 11.336 33.9917 13.1924 34.8938C15.0489 35.7959 17.1217 36.1574 19.1739 35.9372C21.2261 35.7169 23.175 34.9237 24.7977 33.6482C23.4873 32.6198 22.4281 31.3067 21.7002 29.8084C20.9723 28.31 20.5948 26.6658 20.5963 25Z" fill="white"/>
<path d="M42.5949 25C42.5949 27.064 42.0143 29.0863 40.9193 30.8359C39.8243 32.5855 38.2592 33.9917 36.4028 34.8938C34.5464 35.7959 32.4736 36.1574 30.4214 35.9372C28.3692 35.7169 26.4204 34.9237 24.7977 33.6482C26.107 32.6187 27.1654 31.3054 27.8931 29.8073C28.6209 28.3093 28.9991 26.6655 28.9991 25C28.9991 23.3345 28.6209 21.6907 27.8931 20.1927C27.1654 18.6946 26.107 17.3813 24.7977 16.3518C26.4204 15.0763 28.3692 14.2831 30.4214 14.0628C32.4736 13.8426 34.5464 14.2041 36.4028 15.1062C38.2592 16.0083 39.8243 17.4145 40.9193 19.1641C42.0143 20.9137 42.5949 22.936 42.5949 25Z" fill="white"/>
<path d="M41.5456 31.8159V31.4618H41.6883V31.3896H41.3247V31.4618H41.4676V31.8159H41.5456ZM42.2516 31.8159V31.3889H42.1401L42.0119 31.6826L41.8836 31.3889H41.7721V31.8159H41.8508V31.4938L41.9711 31.7715H42.0527L42.1729 31.4931V31.8159H42.2516Z" fill="#F79E1B"/>
<path d="M15.0225 26.852V25.1272C15.0319 24.9821 15.0126 24.8365 14.9659 24.7002C14.9192 24.5638 14.8462 24.4399 14.7518 24.3365C14.6574 24.2331 14.5437 24.1527 14.4184 24.1007C14.293 24.0487 14.1589 24.0262 14.0249 24.0348C13.8495 24.0224 13.6743 24.0613 13.5175 24.1472C13.3607 24.2332 13.228 24.3631 13.1334 24.5235C13.0471 24.3679 12.9236 24.2404 12.7761 24.1544C12.6285 24.0684 12.4623 24.0271 12.2949 24.0348C12.149 24.0269 12.0036 24.0604 11.8733 24.132C11.743 24.2036 11.6322 24.3108 11.5519 24.443V24.1038H11V26.852H11.5572V25.3284C11.5452 25.2344 11.5525 25.1386 11.5786 25.048C11.6048 24.9575 11.6492 24.8743 11.7085 24.8045C11.7679 24.7347 11.8408 24.68 11.922 24.6443C12.0032 24.6087 12.0906 24.5929 12.1781 24.5982C12.5443 24.5982 12.73 24.857 12.73 25.3226V26.852H13.2873V25.3284C13.2761 25.2345 13.2841 25.1392 13.3106 25.049C13.3371 24.9589 13.3815 24.8761 13.4406 24.8065C13.4998 24.737 13.5723 24.6822 13.6531 24.6463C13.7339 24.6103 13.8209 24.5939 13.9082 24.5982C14.2849 24.5982 14.4653 24.857 14.4653 25.3226V26.852H15.0225ZM23.2693 24.1038H22.3672V23.2702H21.81V24.1038H21.2952V24.65H21.81V25.9033C21.81 26.5415 22.0381 26.921 22.6909 26.921C22.9347 26.9217 23.1738 26.848 23.3807 26.7082L23.2216 26.1965C23.0736 26.2922 22.9056 26.3456 22.7333 26.3518C22.4574 26.3518 22.3672 26.1677 22.3672 25.8918V24.65H23.2693V24.1038ZM27.9764 24.0348C27.8419 24.0305 27.7087 24.0656 27.5911 24.1365C27.4734 24.2073 27.3755 24.3112 27.3078 24.4373V24.1038H26.7612V26.852H27.3131V25.3111C27.3131 24.857 27.4935 24.604 27.8544 24.604C27.9724 24.6022 28.0897 24.6257 28.1993 24.673L28.3691 24.1096C28.2431 24.0607 28.1103 24.0354 27.9764 24.0348ZM20.86 24.3223C20.5476 24.121 20.1884 24.0213 19.8252 24.0348C19.1831 24.0348 18.7692 24.3683 18.7692 24.9144C18.7692 25.3629 19.0769 25.6389 19.6447 25.7251L19.9048 25.7653C20.2073 25.8113 20.3506 25.8975 20.3506 26.0528C20.3506 26.2655 20.1489 26.3863 19.7721 26.3863C19.4691 26.3957 19.1719 26.2944 18.9283 26.0988L18.6683 26.5645C18.9898 26.8077 19.3749 26.9327 19.7668 26.921C20.4992 26.921 20.9237 26.5472 20.9237 26.024C20.9237 25.5411 20.5894 25.2881 20.0375 25.2019L19.7775 25.1616C19.5386 25.1272 19.3476 25.0755 19.3476 24.8915C19.3476 24.6902 19.528 24.5695 19.8305 24.5695C20.1083 24.574 20.3804 24.6552 20.6212 24.8052L20.86 24.3223ZM35.6447 24.0348C35.5102 24.0305 35.377 24.0656 35.2593 24.1365C35.1417 24.2073 35.0438 24.3112 34.9761 24.4373V24.1038H34.4295V26.852H34.9814V25.3111C34.9814 24.857 35.1618 24.604 35.5227 24.604C35.6407 24.6022 35.758 24.6257 35.8677 24.673L36.0375 24.1096C35.9114 24.0607 35.7786 24.0354 35.6447 24.0348ZM28.5336 25.4778C28.5263 25.6714 28.5564 25.8645 28.6221 26.0448C28.6878 26.225 28.7876 26.3883 28.9151 26.5242C29.0426 26.6602 29.1949 26.7657 29.3622 26.834C29.5296 26.9023 29.7083 26.932 29.8869 26.921C30.2182 26.939 30.5438 26.8221 30.7996 26.5932L30.5343 26.1103C30.3435 26.2678 30.1109 26.3545 29.871 26.3575C29.6641 26.3439 29.4699 26.2453 29.3279 26.0818C29.1859 25.9184 29.1068 25.7023 29.1068 25.4779C29.1068 25.2534 29.1859 25.0374 29.3279 24.8739C29.4699 24.7104 29.6641 24.6118 29.871 24.5982C30.1109 24.6012 30.3435 24.6879 30.5343 24.8455L30.7996 24.3625C30.5438 24.1337 30.2182 24.0168 29.8869 24.0348C29.7083 24.0238 29.5296 24.0534 29.3623 24.1217C29.1949 24.1901 29.0426 24.2956 28.9151 24.4315C28.7877 24.5674 28.6879 24.7307 28.6222 24.9109C28.5565 25.0911 28.5263 25.2842 28.5336 25.4778ZM33.7025 25.4778V24.1038H33.1505V24.4373C33.0563 24.3058 32.9344 24.2006 32.795 24.1306C32.6556 24.0606 32.5027 24.0277 32.3492 24.0348C32.0072 24.053 31.6848 24.213 31.4487 24.4816C31.2126 24.7502 31.0809 25.107 31.0809 25.4779C31.0809 25.8488 31.2126 26.2056 31.4487 26.4742C31.6848 26.7428 32.0072 26.9028 32.3492 26.921C32.5027 26.928 32.6556 26.8952 32.795 26.8252C32.9344 26.7552 33.0563 26.65 33.1505 26.5185V26.852H33.7025V25.4778ZM31.6487 25.4778C31.6573 25.3157 31.7095 25.1597 31.7988 25.0293C31.8882 24.8989 32.0109 24.7997 32.1517 24.7439C32.2925 24.6881 32.4453 24.6781 32.5912 24.7153C32.7372 24.7524 32.8699 24.835 32.973 24.9529C33.0762 25.0708 33.1452 25.2189 33.1716 25.3788C33.198 25.5386 33.1807 25.7034 33.1217 25.8527C33.0627 26.0021 32.9647 26.1294 32.8397 26.2191C32.7147 26.3088 32.5682 26.3569 32.4182 26.3575C32.3131 26.359 32.2089 26.337 32.1121 26.2927C32.0152 26.2484 31.9279 26.1829 31.8556 26.1002C31.7833 26.0176 31.7276 25.9196 31.692 25.8125C31.6564 25.7054 31.6417 25.5914 31.6487 25.4778ZM24.9887 24.0348C24.6446 24.0545 24.3208 24.2177 24.0853 24.4904C23.8498 24.763 23.721 25.1239 23.7258 25.4973C23.7306 25.8706 23.8687 26.2274 24.1111 26.4929C24.3535 26.7583 24.6813 26.9117 25.0259 26.921C25.4045 26.9353 25.7748 26.7982 26.066 26.5357L25.7953 26.093C25.5858 26.275 25.3262 26.3761 25.0577 26.3805C24.8753 26.3971 24.6942 26.3362 24.5525 26.2106C24.4109 26.0851 24.3199 25.9047 24.2988 25.7078H26.1828C26.1881 25.6331 26.1934 25.5583 26.1934 25.4778C26.1881 24.6212 25.6998 24.0348 24.9887 24.0348ZM24.9781 24.5695C25.1448 24.566 25.306 24.6342 25.4263 24.7592C25.5467 24.8842 25.6164 25.0558 25.6202 25.2364H24.3041C24.3138 25.0519 24.3898 24.8788 24.5157 24.7542C24.6416 24.6296 24.8076 24.5633 24.9781 24.5695ZM38.8235 25.4778V23H38.2716V24.4373C38.1774 24.3058 38.0555 24.2006 37.9161 24.1306C37.7767 24.0606 37.6238 24.0277 37.4703 24.0348C37.1283 24.053 36.8058 24.2129 36.5697 24.4816C36.3336 24.7502 36.2019 25.1069 36.2019 25.4779C36.2019 25.8488 36.3336 26.2056 36.5697 26.4742C36.8058 26.7428 37.1283 26.9028 37.4703 26.921C37.6238 26.928 37.7767 26.8952 37.9161 26.8252C38.0555 26.7552 38.1774 26.65 38.2716 26.5185V26.852H38.8235V25.4778ZM39.7435 26.4537C39.7778 26.4534 39.8118 26.4607 39.8433 26.4751C39.8737 26.4889 39.9014 26.5087 39.9249 26.5337C39.9483 26.5586 39.9669 26.5881 39.9799 26.6207C39.9932 26.6542 40 26.6902 40 26.7267C40 26.7631 39.9932 26.7992 39.9799 26.8326C39.9668 26.8651 39.9482 26.8945 39.9249 26.9193C39.9014 26.9443 39.8737 26.9642 39.8433 26.9782C39.8118 26.9928 39.7778 27.0002 39.7435 27C39.693 27.0005 39.6435 26.985 39.6011 26.9552C39.5588 26.9254 39.5254 26.8828 39.5053 26.8326C39.4921 26.7991 39.4853 26.7631 39.4853 26.7267C39.4853 26.6902 39.4921 26.6542 39.5053 26.6207C39.5182 26.5882 39.5368 26.5586 39.56 26.5337C39.5835 26.5085 39.6113 26.4886 39.6419 26.4751C39.6741 26.4607 39.7087 26.4534 39.7435 26.4537ZM39.7435 26.9397C39.7697 26.94 39.7956 26.9343 39.8196 26.923C39.8426 26.9121 39.8636 26.8967 39.8813 26.8775C39.918 26.8374 39.9385 26.7832 39.9385 26.7268C39.9385 26.6704 39.918 26.6162 39.8813 26.5762C39.8636 26.557 39.8426 26.5416 39.8196 26.531C39.7955 26.5199 39.7696 26.5144 39.7435 26.5146C39.7169 26.5144 39.6905 26.52 39.666 26.531C39.6425 26.5415 39.6212 26.5568 39.6033 26.5762C39.5666 26.6162 39.546 26.6704 39.546 26.7268C39.546 26.7832 39.5666 26.8374 39.6033 26.8775C39.6213 26.8969 39.6426 26.9123 39.666 26.923C39.6905 26.9342 39.7169 26.9399 39.7435 26.9397ZM39.7583 26.5989C39.7832 26.5972 39.8078 26.6049 39.8279 26.6207C39.8359 26.6279 39.8423 26.637 39.8465 26.6472C39.8508 26.6575 39.8527 26.6687 39.8523 26.68C39.8526 26.6896 39.851 26.6992 39.8476 26.7081C39.8443 26.7171 39.8392 26.7251 39.8328 26.7318C39.8175 26.7466 39.798 26.7554 39.7775 26.7569L39.8541 26.8527H39.7942L39.7232 26.7576H39.7003V26.8527H39.6502V26.5989H39.7583ZM39.7003 26.6465V26.7141H39.7578C39.7688 26.7147 39.7798 26.7118 39.7893 26.7057C39.7932 26.7029 39.7963 26.6991 39.7983 26.6945C39.8004 26.69 39.8013 26.685 39.801 26.68C39.8013 26.675 39.8003 26.6701 39.7982 26.6657C39.7962 26.6613 39.7931 26.6575 39.7893 26.6548C39.7797 26.6488 39.7688 26.6459 39.7578 26.6465H39.7003ZM36.7698 25.4778C36.7784 25.3157 36.8306 25.1598 36.9199 25.0294C37.0093 24.899 37.132 24.7997 37.2728 24.7439C37.4136 24.6881 37.5664 24.6782 37.7123 24.7154C37.8582 24.7525 37.991 24.8351 38.0941 24.953C38.1972 25.0709 38.2662 25.2189 38.2926 25.3788C38.3191 25.5387 38.3017 25.7035 38.2427 25.8528C38.1837 26.0021 38.0857 26.1295 37.9607 26.2192C37.8357 26.3088 37.6892 26.3569 37.5392 26.3575C37.4342 26.359 37.3299 26.337 37.2331 26.2927C37.1363 26.2484 37.049 26.1829 36.9767 26.1002C36.9044 26.0176 36.8487 25.9196 36.8131 25.8125C36.7775 25.7054 36.7627 25.5914 36.7698 25.4778ZM18.1323 25.4778V24.1038H17.5804V24.4373C17.4862 24.3058 17.3643 24.2006 17.2249 24.1306C17.0855 24.0606 16.9326 24.0277 16.7791 24.0348C16.4371 24.053 16.1147 24.213 15.8786 24.4816C15.6425 24.7502 15.5108 25.107 15.5108 25.4779C15.5108 25.8488 15.6425 26.2056 15.8786 26.4742C16.1147 26.7428 16.4371 26.9028 16.7791 26.921C16.9326 26.928 17.0855 26.8952 17.2249 26.8252C17.3643 26.7552 17.4862 26.65 17.5804 26.5185V26.852H18.1323V25.4778ZM16.0786 25.4778C16.0872 25.3157 16.1394 25.1598 16.2288 25.0294C16.3181 24.899 16.4408 24.7997 16.5816 24.7439C16.7224 24.6881 16.8752 24.6782 17.0211 24.7154C17.1671 24.7525 17.2998 24.8351 17.4029 24.953C17.5061 25.0709 17.5751 25.219 17.6015 25.3788C17.6279 25.5387 17.6105 25.7035 17.5515 25.8528C17.4925 26.0021 17.3945 26.1295 17.2695 26.2192C17.1445 26.3088 16.998 26.3569 16.8481 26.3575C16.743 26.359 16.6388 26.337 16.5419 26.2927C16.4451 26.2484 16.3578 26.1829 16.2855 26.1002C16.2132 26.0176 16.1575 25.9196 16.1219 25.8125C16.0863 25.7054 16.0716 25.5914 16.0786 25.4778Z" fill="#231F20"/>
</g>
</svg>
